<?xml version="1.0" encoding="utf-8"?>
<svg viewBox="26 40 130 140" xmlns="http://www.w3.org/2000/svg">
  <defs>
    <pattern id="pattern-0" x="0" y="0" width="20" height="20" patternUnits="userSpaceOnUse" viewBox="0 0 100 100">
      <path d="M 0 0 L 50 0 L 50 100 L 0 100 Z" style="fill: black;"/>
    </pattern>
    <style id="bx-google-fonts">@import url(https://fonts.googleapis.com/css?family=Arimo:400,400italic,700,700italic);</style>
  </defs>
  <defs>
    <style id="bx-google-fonts">@import url(https://fonts.googleapis.com/css?family=Roboto:100,100italic,300,300italic,400,400italic,500,500italic,700,700italic,900,900italic);</style>
  </defs>
  <text x="216.427" y="189.124" style="fill: rgb(7, 94, 187); font-family: Arimo; font-size: 32px; white-space: pre;"> </text>
  <path d="M 77.487 127.997 L 67.473 118.967 L 62.876 106.161 L 63.697 95.818 L 67.637 86.624 L 74.861 79.236 L 84.219 74.147 L 94.234 73.326 L 105.89 76.609 L 114.92 83.669 L 120.995 94.34 L 122.144 107.311 L 119.189 117.325 L 113.442 124.878 L 107.532 129.146 L 98.502 132.758 L 94.069 132.758 L 101.279 123.578 L 86.996 119.966 L 77.487 127.997 Z" style="stroke: rgb(255, 0, 0); fill: rgb(0, 92, 179);"/>
  <path id="path-1" style="opacity: 1; fill-opacity: 1; fill-rule: nonzero; stroke-width: 5; fill: rgb(0, 92, 179); stroke: rgb(255, 252, 252);" d="M 132.545 100.547 C 132.545 75.177 111.976 54.606 86.602 54.606 C 61.231 54.606 40.662 75.177 40.662 100.547 C 40.662 125.918 61.231 146.49 86.602 146.49 C 89.301 146.49 91.864 146.238 94.435 145.793 L 94.275 166.374 L 107.593 163.372 L 107.277 141.427 C 122.198 133.833 132.545 118.432 132.545 100.547 M 107.446 124.279 L 107.34 110.978 L 94.856 116.818 L 94.371 129.216 C 91.891 129.889 89.295 130.305 86.602 130.305 C 70.168 130.305 56.844 116.983 56.844 100.547 C 56.844 84.114 70.168 70.79 86.602 70.79 C 103.039 70.79 116.361 84.114 116.361 100.547 C 116.361 108.959 113.752 116.996 108.149 122.416" transform="matrix(0.72583, 0.687874, -0.687874, 0.72583, 98.818226, -29.649534)"/>
  <ellipse transform="matrix(1, 0, 0, 1.000001, -158.981628, -11.718923)" cx="242.495" cy="103.897" rx="7.004" ry="7.109" style="stroke-width: 5; fill: rgb(255, 151, 0); stroke: rgb(255, 151, 0);"/>
  <path d="M 76.397 91.397 C 74.82 89.189 80.146 83.962 81.084 85.275 C 80.77 84.882 75.72 90.551 76.397 91.397 Z" style="fill: rgb(255, 255, 255); stroke: rgb(255, 255, 255); stroke-width: 0;" transform="matrix(0.999889, -0.014913, 0.014913, 0.999889, -1.298895, 1.172248)"/>
</svg>