<?xml version="1.0" encoding="utf-8"?>
<svg viewBox="26 40 130 140" xmlns="http://www.w3.org/2000/svg">
  <defs>
    <pattern id="pattern-0" x="0" y="0" width="20" height="20" patternUnits="userSpaceOnUse" viewBox="0 0 100 100">
      <path d="M 0 0 L 50 0 L 50 100 L 0 100 Z" style="fill: black;"/>
    </pattern>
    <style id="bx-google-fonts">@import url(https://fonts.googleapis.com/css?family=Arimo:400,400italic,700,700italic);</style>
  </defs>
  <text x="216.427" y="189.124" style="fill: rgb(7, 94, 187); font-family: Arimo; font-size: 32px; white-space: pre;"> </text>
  <path d="M 66.735 136.854 L 54.683 126.086 L 49.151 110.816 L 50.139 98.482 L 54.88 87.519 L 63.575 78.71 L 74.837 72.641 L 86.89 71.662 L 100.919 75.576 L 111.785 83.995 L 119.098 96.72 L 120.48 112.187 L 116.924 124.128 L 110.007 133.135 L 102.895 138.224 L 92.027 142.531 L 86.691 142.531 L 95.369 131.585 L 78.179 127.278 L 66.735 136.854 Z" style="stroke: rgb(255, 0, 0); fill: rgb(0, 92, 179);"/>
  <path id="path-1" style="opacity: 1; fill-opacity: 1; fill-rule: nonzero; stroke-width: 5; fill: rgb(0, 92, 179); stroke: rgb(255, 252, 252);" d="M 131.617 100.177 C 131.617 74.807 111.047 54.236 85.673 54.236 C 60.302 54.236 39.733 74.807 39.733 100.177 C 39.733 125.548 60.302 146.121 85.673 146.121 C 88.372 146.121 90.935 145.869 93.506 145.424 L 93.346 165.381 L 106.013 165.339 L 106.348 141.058 C 121.269 133.464 131.617 118.062 131.617 100.177 M 106.517 123.909 L 106.411 110.608 L 93.927 116.448 L 93.442 128.847 C 90.962 129.52 88.366 129.936 85.673 129.936 C 69.239 129.936 55.915 116.613 55.915 100.177 C 55.915 83.744 69.239 70.42 85.673 70.42 C 102.11 70.42 115.432 83.744 115.432 100.177 C 115.432 108.589 112.823 116.626 107.22 122.046" transform="matrix(0.96679, 0.255571, -0.255571, 0.96679, 30.909106, -18.249336)"/>
  <ellipse cx="79.065" cy="56.652" rx="7.004" ry="7.109" style="stroke-width: 5; fill: rgb(255, 151, 0); stroke: rgb(255, 151, 0);"/>
  <path d="M 71.378 55.272 C 69.635 53.387 75.926 47.55 77.082 48.77 C 76.411 48.202 70.968 52.342 71.378 55.272 Z" style="fill: rgb(255, 255, 255); stroke: rgb(255, 255, 255); stroke-width: 0;" transform="matrix(0.999889, -0.014913, 0.014913, 0.999889, -0.758534, 1.099712)"/>
  <ellipse cx="79.065" cy="56.652" rx="7.004" ry="7.109" style="stroke: rgb(0, 0, 0); fill: rgba(0, 0, 0, 0.509804); stroke-width: 0;" transform="matrix(1, 0, 0, 1.000001, 4.722122, 34.118683)"/>
</svg>